<svg width="844" height="250" viewBox="0 0 844 250" fill="none" xmlns="http://www.w3.org/2000/svg">
<ellipse cx="122.96" cy="125" rx="122.96" ry="125" fill="#FF0000"/>
<path d="M87.8348 71.6364V188H63.2325V71.6364H87.8348ZM103.644 91.9205V71.6364H199.213V91.9205H163.588V188H139.269V91.9205H103.644Z" fill="white"/>
<path d="M246.684 91.9205V71.6364H342.252V91.9205H306.627V188H282.309V91.9205H246.684ZM459.61 129.818C459.61 142.508 457.205 153.303 452.394 162.205C447.622 171.106 441.107 177.905 432.849 182.602C424.629 187.261 415.387 189.591 405.122 189.591C394.781 189.591 385.5 187.242 377.281 182.545C369.061 177.848 362.565 171.049 357.792 162.148C353.019 153.246 350.633 142.47 350.633 129.818C350.633 117.129 353.019 106.333 357.792 97.4318C362.565 88.5303 369.061 81.75 377.281 77.0909C385.5 72.3939 394.781 70.0455 405.122 70.0455C415.387 70.0455 424.629 72.3939 432.849 77.0909C441.107 81.75 447.622 88.5303 452.394 97.4318C457.205 106.333 459.61 117.129 459.61 129.818ZM434.667 129.818C434.667 121.598 433.436 114.667 430.974 109.023C428.55 103.379 425.122 99.0985 420.69 96.1818C416.258 93.2652 411.069 91.8068 405.122 91.8068C399.175 91.8068 393.985 93.2652 389.553 96.1818C385.122 99.0985 381.675 103.379 379.213 109.023C376.788 114.667 375.576 121.598 375.576 129.818C375.576 138.038 376.788 144.97 379.213 150.614C381.675 156.258 385.122 160.538 389.553 163.455C393.985 166.371 399.175 167.83 405.122 167.83C411.069 167.83 416.258 166.371 420.69 163.455C425.122 160.538 428.55 156.258 430.974 150.614C433.436 144.97 434.667 138.038 434.667 129.818ZM519.085 188H477.835V71.6364H519.426C531.13 71.6364 541.206 73.9659 549.653 78.625C558.1 83.2462 564.596 89.8939 569.142 98.5682C573.725 107.242 576.017 117.621 576.017 129.705C576.017 141.826 573.725 152.242 569.142 160.955C564.596 169.667 558.062 176.352 549.539 181.011C541.054 185.67 530.903 188 519.085 188ZM502.437 166.92H518.062C525.335 166.92 531.452 165.633 536.414 163.057C541.414 160.443 545.164 156.409 547.664 150.955C550.202 145.462 551.471 138.379 551.471 129.705C551.471 121.106 550.202 114.08 547.664 108.625C545.164 103.17 541.433 99.1553 536.471 96.5795C531.509 94.0038 525.392 92.7159 518.119 92.7159H502.437V166.92ZM607.735 188H581.372L621.542 71.6364H653.247L693.36 188H666.997L637.849 98.2273H636.94L607.735 188ZM606.088 142.261H668.36V161.466H606.088V142.261ZM688.673 71.6364H716.23L742.764 121.75H743.9L770.434 71.6364H797.991L755.548 146.864V188H731.116V146.864L688.673 71.6364Z" fill="black"/>
</svg>
