<svg width="250" height="250" viewBox="0 0 250 250" fill="none" xmlns="http://www.w3.org/2000/svg">
<rect width="250" height="250" fill="white"/>
<circle cx="125" cy="125" r="125" fill="url(#paint0_linear_0_1)"/>
<path d="M67.04 86.5V74.44H177.92V86.5H157.22V190H143.18V139.6H105.38V164.08H93.14L88.64 154C85.4 146.32 83.78 140.92 83.78 137.8C83.78 135.4 84.44 133.36 85.76 131.68C87.2 130 89.06 128.86 91.34 128.26V86.5H67.04ZM143.18 86.5H105.38V127.72H143.18V86.5Z" fill="white"/>
<path d="M145.15 212.65C143.45 210.95 142.6 208.85 142.6 206.35C142.6 203.85 143.45 201.75 145.15 200.05C146.85 198.35 148.95 197.5 151.45 197.5C153.95 197.5 156.05 198.35 157.75 200.05C159.45 201.75 160.3 203.85 160.3 206.35C160.3 208.85 159.45 210.95 157.75 212.65C156.05 214.35 153.95 215.2 151.45 215.2C148.95 215.2 146.85 214.35 145.15 212.65Z" fill="white"/>
<defs>
<linearGradient id="paint0_linear_0_1" x1="44.3548" y1="20.4918" x2="194.725" y2="228.222" gradientUnits="userSpaceOnUse">
<stop stop-color="#FE7A00"/>
<stop offset="1" stop-color="#FFFF00"/>
</linearGradient>
</defs>
</svg>
