<svg id="visual" viewBox="0 0 900 600" width="900" height="600" xmlns="http://www.w3.org/2000/svg" xmlns:xlink="http://www.w3.org/1999/xlink" version="1.1"><rect x="0" y="0" width="900" height="600" fill="#ffffff"></rect><path d="M0 370L21.5 377C43 384 86 398 128.8 411.2C171.7 424.3 214.3 436.7 257.2 431C300 425.3 343 401.7 385.8 389.5C428.7 377.3 471.3 376.7 514.2 378.2C557 379.7 600 383.3 642.8 379C685.7 374.7 728.3 362.3 771.2 371.2C814 380 857 410 878.5 425L900 440L900 601L878.5 601C857 601 814 601 771.2 601C728.3 601 685.7 601 642.8 601C600 601 557 601 514.2 601C471.3 601 428.7 601 385.8 601C343 601 300 601 257.2 601C214.3 601 171.7 601 128.8 601C86 601 43 601 21.5 601L0 601Z" fill="#d3d3d3"></path><path d="M0 398L21.5 405.7C43 413.3 86 428.7 128.8 431.2C171.7 433.7 214.3 423.3 257.2 419.5C300 415.7 343 418.3 385.8 424.8C428.7 431.3 471.3 441.7 514.2 445.8C557 450 600 448 642.8 445C685.7 442 728.3 438 771.2 441.2C814 444.3 857 454.7 878.5 459.8L900 465L900 601L878.5 601C857 601 814 601 771.2 601C728.3 601 685.7 601 642.8 601C600 601 557 601 514.2 601C471.3 601 428.7 601 385.8 601C343 601 300 601 257.2 601C214.3 601 171.7 601 128.8 601C86 601 43 601 21.5 601L0 601Z" fill="#dedede"></path><path d="M0 453L21.5 457.7C43 462.3 86 471.7 128.8 472.5C171.7 473.3 214.3 465.7 257.2 465C300 464.3 343 470.7 385.8 473.5C428.7 476.3 471.3 475.7 514.2 478C557 480.3 600 485.7 642.8 482C685.7 478.3 728.3 465.7 771.2 459.5C814 453.3 857 453.7 878.5 453.8L900 454L900 601L878.5 601C857 601 814 601 771.2 601C728.3 601 685.7 601 642.8 601C600 601 557 601 514.2 601C471.3 601 428.7 601 385.8 601C343 601 300 601 257.2 601C214.3 601 171.7 601 128.8 601C86 601 43 601 21.5 601L0 601Z" fill="#e9e9e9"></path><path d="M0 498L21.5 502C43 506 86 514 128.8 519.3C171.7 524.7 214.3 527.3 257.2 521.3C300 515.3 343 500.7 385.8 496.8C428.7 493 471.3 500 514.2 506.7C557 513.3 600 519.7 642.8 515.8C685.7 512 728.3 498 771.2 499.3C814 500.7 857 517.3 878.5 525.7L900 534L900 601L878.5 601C857 601 814 601 771.2 601C728.3 601 685.7 601 642.8 601C600 601 557 601 514.2 601C471.3 601 428.7 601 385.8 601C343 601 300 601 257.2 601C214.3 601 171.7 601 128.8 601C86 601 43 601 21.5 601L0 601Z" fill="#f4f4f4"></path><path d="M0 548L21.5 548.7C43 549.3 86 550.7 128.8 553.8C171.7 557 214.3 562 257.2 562.5C300 563 343 559 385.8 555C428.7 551 471.3 547 514.2 549.7C557 552.3 600 561.7 642.8 562.3C685.7 563 728.3 555 771.2 552.7C814 550.3 857 553.7 878.5 555.3L900 557L900 601L878.5 601C857 601 814 601 771.2 601C728.3 601 685.7 601 642.8 601C600 601 557 601 514.2 601C471.3 601 428.7 601 385.8 601C343 601 300 601 257.2 601C214.3 601 171.7 601 128.8 601C86 601 43 601 21.5 601L0 601Z" fill="#ffffff"></path></svg>