<svg id="visual" viewBox="0 0 900 600" width="900" height="600" xmlns="http://www.w3.org/2000/svg" xmlns:xlink="http://www.w3.org/1999/xlink" version="1.1"><path d="M0 223L82 85L164 97L245 127L327 175L409 163L491 247L573 103L655 115L736 193L818 175L900 181L900 0L818 0L736 0L655 0L573 0L491 0L409 0L327 0L245 0L164 0L82 0L0 0Z" fill="#ffffff"></path><path d="M0 259L82 181L164 133L245 169L327 277L409 199L491 283L573 157L655 175L736 235L818 217L900 241L900 179L818 173L736 191L655 113L573 101L491 245L409 161L327 173L245 125L164 95L82 83L0 221Z" fill="#f7f7f7"></path><path d="M0 343L82 415L164 427L245 367L327 427L409 343L491 391L573 367L655 385L736 367L818 349L900 403L900 239L818 215L736 233L655 173L573 155L491 281L409 197L327 275L245 167L164 131L82 179L0 257Z" fill="#efefef"></path><path d="M0 511L82 559L164 505L245 529L327 565L409 487L491 481L573 523L655 517L736 517L818 523L900 517L900 401L818 347L736 365L655 383L573 365L491 389L409 341L327 425L245 365L164 425L82 413L0 341Z" fill="#e7e7e7"></path><path d="M0 601L82 601L164 601L245 601L327 601L409 601L491 601L573 601L655 601L736 601L818 601L900 601L900 515L818 521L736 515L655 515L573 521L491 479L409 485L327 563L245 527L164 503L82 557L0 509Z" fill="#dfdfdf"></path></svg>